<svg width="100" height="100" viewBox="0 0 100 100" fill="none" xmlns="http://www.w3.org/2000/svg">
<path fill-rule="evenodd" clip-rule="evenodd" d="M14.6447 14.6447C13.2088 16.0805 11.8786 17.5819 10.654 19.1392C-4.77597 38.7611 -3.44574 67.2649 14.6447 85.3553C32.7351 103.446 61.2389 104.776 80.8608 89.346C82.4181 88.1214 83.9195 86.7912 85.3553 85.3553C86.7912 83.9195 88.1214 82.4181 89.346 80.8608C104.776 61.2389 103.446 32.7351 85.3553 14.6447C67.2649 -3.44574 38.7611 -4.77597 19.1392 10.654C17.5819 11.8786 16.0805 13.2088 14.6447 14.6447ZM19.2204 27.7056C8.43046 42.5638 9.73365 63.4738 23.1299 76.8701C36.5262 90.2663 57.4362 91.5695 72.2944 80.7796L19.2204 27.7056ZM80.7796 72.2944L27.7056 19.2204C42.5638 8.43046 63.4738 9.73365 76.8701 23.1299C90.2663 36.5262 91.5695 57.4362 80.7796 72.2944Z" fill="#C75757"/>
</svg>
