<svg viewBox="0 0 732 571" fill="none" xmlns="http://www.w3.org/2000/svg">
	<style>
		svg {
			fill: #eaeaea;
		}
	</style>
	<circle cx="548" cy="454" r="116"/>
	<circle cx="684" cy="349" r="46"/>
	<circle cx="676" cy="260" r="32"/>
	<circle cx="577" cy="223" r="64"/>
	<circle cx="492" cy="288" r="38"/>
	<circle cx="483" cy="155" r="38"/>
	<circle cx="372" cy="219" r="79"/>
	<circle cx="325" cy="337" r="38"/>
	<circle cx="378" cy="417" r="46"/>
	<circle cx="338" cy="503" r="14"/>
	<circle cx="262" cy="491" r="34"/>
	<circle cx="213" cy="439" r="14"/>
	<circle cx="164" cy="472" r="23"/>
	<circle cx="109" cy="412" r="34"/>
	<circle cx="170" cy="386" r="14"/>
	<circle cx="197" cy="334" r="23"/>
	<circle cx="150" cy="313" r="14"/>
	<circle cx="97" cy="317" r="14"/>
	<circle cx="34" cy="303" r="34"/>
	<circle cx="62" cy="252" r="14"/>
	<circle cx="203" cy="259" r="14"/>
	<circle cx="139" cy="248" r="14"/>
	<circle cx="185" cy="212" r="14"/>
	<circle cx="93" cy="156" r="34"/>
	<circle cx="155" cy="162" r="14"/>
	<circle cx="222" cy="148" r="14"/>
	<circle cx="182" cy="103" r="14"/>
	<circle cx="248" cy="98" r="14"/>
	<circle cx="304" cy="66" r="34"/>
	<circle cx="359" cy="33" r="14"/>
	<circle cx="405" cy="53" r="14"/>
	<circle cx="463" cy="34" r="34"/>
	<circle cx="515" cy="68" r="14"/>
</svg>