<svg width="241" height="108" viewBox="0 0 241 108" fill="none" xmlns="http://www.w3.org/2000/svg">
<path d="M183.439 77.2222V80.3238L181.087 81.1284V85.4409L183.439 86.2456V89.2691L171.806 84.9722V81.5191L183.439 77.2222ZM178.954 81.855L174.782 83.2847L178.954 84.7144V81.855Z" fill="#BCA462"/>
<path d="M174.056 64.2088V67.8416L183.439 67.8416V70.8416L174.056 70.8416V74.4744H171.806V64.2088H174.056Z" fill="#BCA462"/>
<path d="M183.439 47.9688V50.9531H175.65L180.704 53.1094V55.1797L175.65 57.3359H183.439V60.1641H171.806V56.6797L177.642 54.0625L171.806 51.4531V47.9688H183.439Z" fill="#BCA462"/>
<path d="M183.439 32.1741V35.0647L175.454 40.0022H183.439V42.7522H171.806V39.1663L178.47 34.9241H171.806V32.1741H183.439Z" fill="#BCA462"/>
<path d="M174.056 17.8638V21.4966H183.439V24.4966H174.056V28.1294H171.806V17.8638H174.056Z" fill="#BCA462"/>
<path fill-rule="evenodd" clip-rule="evenodd" d="M227.439 54C227.439 60.0751 222.514 65 216.439 65C210.364 65 205.439 60.0751 205.439 54C205.439 47.9249 210.364 43 216.439 43C222.514 43 227.439 47.9249 227.439 54ZM209.439 54C209.439 50.134 212.573 47 216.439 47C220.305 47 223.439 50.134 223.439 54C223.439 57.866 220.305 61 216.439 61C212.573 61 209.439 57.866 209.439 54Z" fill="#BCA462"/>
<path fill-rule="evenodd" clip-rule="evenodd" d="M130.322 28.7813L136.423 32.849C136.663 32.7128 136.897 32.4785 137.055 32.1221C145.447 13.2065 164.396 0 186.439 0C216.262 0 240.439 24.1766 240.439 54C240.439 83.8234 216.262 108 186.439 108C162.919 108 142.92 92.9653 135.511 71.9946C135.488 71.93 135.462 71.8687 135.434 71.8106L130.322 75.2189C126.135 78.0099 120.669 75.5881 119.618 71.0001L100.105 71L93.4387 66H89.4388L82.7721 71H76.5652L69.8985 63H66.9789L60.3122 71H54.5652L49.5652 65H48.3122L43.3122 71H35.959L28.959 65H24.9184L17.9184 71H16.4C14.5773 71 12.8534 70.1714 11.7148 68.7482L1.31474 55.7482C-0.438248 53.5569 -0.438248 50.4431 1.31474 48.2518L11.7148 35.2518C12.8534 33.8286 14.5773 33 16.4 33L119.618 33.0001C120.669 28.4121 126.135 25.9902 130.322 28.7813ZM128.103 32.1095L135.439 37.0001L135.894 37C138 37 139.858 35.6692 140.712 33.7441C148.485 16.2219 166.035 4 186.439 4C214.053 4 236.439 26.3857 236.439 54C236.439 81.6143 214.053 104 186.439 104C164.667 104 146.145 90.0844 139.282 70.662C138.64 68.845 137.126 67.4661 135.292 67.0975L128.103 71.8907C126.109 73.2198 123.439 71.7906 123.439 69.3945V67.0001L101.439 67L95.572 62.6C95.0527 62.2106 94.4211 62 93.7721 62H89.1055C88.4563 62 87.8247 62.2106 87.3054 62.6L81.4387 67H78.4387L72.6716 60.0795C72.1017 59.3954 71.2573 59 70.3669 59H66.5105C65.6202 59 64.7759 59.3954 64.2059 60.0795L58.4387 67H56.4387L52.3382 62.0795C51.7683 61.3954 50.9239 61 50.0336 61H47.8439C46.9535 61 46.1092 61.3954 45.5392 62.0795L41.4387 67H37.4387L31.2814 61.7222C30.7376 61.2562 30.0451 61 29.329 61H24.5485C23.8324 61 23.1399 61.2562 22.5962 61.7222L16.4387 67H16.4C15.7924 67 15.2178 66.7238 14.8382 66.2494L5.83873 55H124V51H4.26775C4.31761 50.9138 4.37444 50.8303 4.43822 50.7506L14.8382 37.7506C15.2178 37.2762 15.7925 37 16.4 37L123.439 37.0001V34.6056C123.439 32.2095 126.109 30.7804 128.103 32.1095Z" fill="#BCA462"/>
</svg>
