<svg width="224" height="173" viewBox="0 0 224 173" fill="none" xmlns="http://www.w3.org/2000/svg">
<path d="M152.021 65.1855L148.128 51.3865C142.201 30.3763 122.877 15 100 15C72.3857 15 50 37.3858 50 65C50 67.9045 50.246 70.7396 50.7152 73.4887L53.7861 91.4833L35 91C23.9543 91 15 99.9543 15 111C15 122.046 23.9543 131 35 131H55.5V146H35C15.67 146 0 130.33 0 111C0 96.0841 9.33051 83.3475 22.4733 78.3083C26.3627 76.8171 31.5149 76.0121 35.929 76.0121C35.3181 72.4327 35 68.7535 35 65C35 63.6568 35.0408 62.3231 35.121 61.0001C37.1873 26.9645 65.4447 0 100 0C129.768 0 154.862 20.0104 162.565 47.3137C166.237 46.4545 170.066 46 174 46C201.614 46 224 68.3857 224 96C224 123.614 201.614 146 174 146H159V131H174C193.33 131 209 115.33 209 96C209 76.67 193.33 61 174 61C171.224 61 168.542 61.3202 165.982 61.9193L152.021 65.1855Z" fill="white"/>
<path d="M123 71H93V131H64L107.5 173L151 131H123V71Z" fill="white"/>
</svg>
