<svg xmlns="http://www.w3.org/2000/svg" xmlns:xlink="http://www.w3.org/1999/xlink" width="211" height="164" fill="none" xmlns:v="https://vecta.io/nano"><g fill="#dfdfdf" stroke="#d1d1d1" stroke-width=".5"><path d="M97.84 148.63a3.981 3.981 0 1 0 0-7.962 3.981 3.981 0 1 0 0 7.962zm-35.82-18.5a3.981 3.981 0 1 0 0-7.962 3.981 3.981 0 1 0 0 7.962zM48 141.956c3.52 0 6.374-2.854 6.374-6.374S51.5 129.208 48 129.208s-6.374 2.854-6.374 6.374 2.854 6.374 6.374 6.374zm28.18 8.814a9.58 9.58 0 0 0 9.58-9.58 9.59 9.59 0 0 0-9.58-9.58c-5.28 0-9.58 4.3-9.58 9.58s4.3 9.58 9.58 9.58zM32.257 127.9a9.59 9.59 0 0 0 9.58-9.58c0-5.28-4.3-9.58-9.58-9.58a9.59 9.59 0 0 0-9.58 9.58 9.59 9.59 0 0 0 9.58 9.58zm-21.443-30.9a9.59 9.59 0 0 0 9.58-9.58c0-5.28-4.3-9.58-9.58-9.58s-9.58 4.3-9.58 9.58 4.3 9.58 9.58 9.58zM27.87 54.967a9.59 9.59 0 0 0 9.58-9.58c0-5.28-4.3-9.58-9.58-9.58s-9.58 4.3-9.58 9.58 4.3 9.58 9.58 9.58zm60.184-25.912a9.59 9.59 0 0 0 9.58-9.58c0-5.28-4.3-9.58-9.58-9.58s-9.58 4.3-9.58 9.58 4.3 9.58 9.58 9.58zm45.532-9.155a9.59 9.59 0 0 0 9.582-9.58c0-5.28-4.3-9.58-9.582-9.58s-9.58 4.3-9.58 9.58 4.3 9.58 9.58 9.58zm-75.922 82.78c3.52 0 6.374-2.853 6.374-6.374s-2.854-6.374-6.374-6.374-6.374 2.854-6.374 6.374 2.854 6.374 6.374 6.374z"/><use xlink:href="#B"/><use xlink:href="#B" x="-5.812" y="-20.79"/><use xlink:href="#B" x="-8.93" y="-39.26"/><use xlink:href="#B" x="4.043" y="-49.534"/><use xlink:href="#B" x="-4.459" y="-63.837"/><use xlink:href="#B" x="14.844" y="-67.825"/><use xlink:href="#B" x="3.306" y="-80.756"/><use xlink:href="#B" x="22.344" y="-82.252"/><use xlink:href="#B" x="53.966" y="-100.884"/><use xlink:href="#B" x="66.85" y="-95.227"/><use xlink:href="#B" x="98.473" y="-90.653"/><use xlink:href="#B" x="-20.924" y="-19.476"/><use xlink:href="#B" x="-31.044" y="-38.4"/><use xlink:href="#B" x="9.362" y="-36.26"/></g><path d="M129.932 63.35c0 12.36-10.085 22.382-22.53 22.382S84.87 75.7 84.87 63.35s10.085-22.382 22.53-22.382 22.53 10.023 22.53 22.382zm20.18-18.26c0 5.942-4.85 10.764-10.837 10.764s-10.837-4.822-10.837-10.764 4.85-10.764 10.837-10.764 10.837 4.822 10.837 10.764zm-45.208 52.078c0 5.943-4.85 10.764-10.837 10.764S83.23 103.1 83.23 97.168s4.85-10.764 10.837-10.764 10.837 4.822 10.837 10.764z" stroke-width=".5" fill="#d9d9d9" stroke="#ccc"/><path d="M203.628 75.05c0 4.974-4.06 9-9.073 9s-9.074-4.037-9.074-9 4.06-9 9.074-9 9.073 4.037 9.073 9zm-52.735 8.164c0 4.974-4.06 9-9.073 9s-9.073-4.037-9.073-9 4.06-9 9.073-9 9.073 4.037 9.073 9zm33.757-18.697c0 10.096-8.24 18.285-18.407 18.285s-18.406-8.2-18.406-18.285 8.24-18.285 18.406-18.285 18.407 8.2 18.407 18.285z" stroke-width=".5" fill="silver" stroke="#b3b3b3"/><path d="M191.393 130.497c0 18.355-14.977 33.24-33.458 33.24s-33.46-14.884-33.46-33.24 14.977-33.24 33.46-33.24 33.458 14.884 33.458 33.24zm18.84-30.15c0 7.222-5.893 13.082-13.17 13.082s-13.17-5.86-13.17-13.082 5.893-13.08 13.17-13.08 13.17 5.86 13.17 13.08zm-87.66 19.635c0 7.222-5.894 13.08-13.17 13.08s-13.17-5.86-13.17-13.08 5.893-13.08 13.17-13.08 13.17 5.86 13.17 13.08z" stroke-width=".5" fill="#b5b5b5" stroke="#a8a8a8"/><defs ><path id="B" d="M49.964 114.97a3.98 3.98 0 1 0 0-7.961 3.98 3.98 0 1 0 0 7.961z"/></defs></svg>